<svg width="1200" height="800" viewBox="0 0 1200 800" fill="none" xmlns="http://www.w3.org/2000/svg">
  <defs>
    <linearGradient id="sky" x1="0" y1="0" x2="1200" y2="800" gradientUnits="userSpaceOnUse">
      <stop stop-color="#fff7fc"/>
      <stop offset="0.48" stop-color="#f7ddff"/>
      <stop offset="1" stop-color="#d8f8ff"/>
    </linearGradient>
    <linearGradient id="crystal" x1="360" y1="150" x2="790" y2="690" gradientUnits="userSpaceOnUse">
      <stop stop-color="#ffffff" stop-opacity="0.96"/>
      <stop offset="0.45" stop-color="#ffa6d6" stop-opacity="0.86"/>
      <stop offset="1" stop-color="#87e8ff" stop-opacity="0.88"/>
    </linearGradient>
    <filter id="glow" x="-20%" y="-20%" width="140%" height="140%">
      <feGaussianBlur stdDeviation="18" result="blur"/>
      <feColorMatrix in="blur" type="matrix" values="1 0 0 0 1 0 0.45 0 0 0.58 0 0 1 0 0.95 0 0 0 0.42 0"/>
      <feBlend in="SourceGraphic"/>
    </filter>
  </defs>
  <rect width="1200" height="800" fill="url(#sky)"/>
  <circle cx="180" cy="150" r="130" fill="#fff" fill-opacity="0.42"/>
  <circle cx="1000" cy="128" r="178" fill="#ffb6df" fill-opacity="0.28"/>
  <circle cx="980" cy="575" r="225" fill="#92ecff" fill-opacity="0.24"/>
  <path d="M158 624C312 528 434 548 564 612C710 684 880 692 1042 588" stroke="#fff" stroke-opacity="0.66" stroke-width="42" stroke-linecap="round"/>
  <path d="M463 170L628 80L786 184L744 520L610 692L488 520L463 170Z" fill="url(#crystal)" filter="url(#glow)"/>
  <path d="M628 80L610 692M463 170L744 520M786 184L488 520" stroke="#fff" stroke-opacity="0.54" stroke-width="5"/>
  <path d="M306 342C410 300 486 306 548 354C636 421 744 416 884 330" stroke="#ff7fc4" stroke-opacity="0.42" stroke-width="18" stroke-linecap="round"/>
  <path d="M288 420C430 378 522 396 616 450C718 510 814 508 942 430" stroke="#73dfff" stroke-opacity="0.44" stroke-width="14" stroke-linecap="round"/>
  <g fill="#fff" fill-opacity="0.78">
    <path d="M276 188C309 172 329 184 334 217C301 233 280 221 276 188Z"/>
    <path d="M930 214C963 198 983 210 988 243C955 259 934 247 930 214Z"/>
    <path d="M214 524C247 508 267 520 272 553C239 569 218 557 214 524Z"/>
    <path d="M898 608C931 592 951 604 956 637C923 653 902 641 898 608Z"/>
  </g>
</svg>
